<?xml version="1.0" encoding="UTF-8" standalone="no"?>
<!-- Created with Inkscape (http://www.inkscape.org/) -->

<svg
   width="150.2823mm"
   height="103.05936mm"
   viewBox="0 0 150.2823 103.05936"
   version="1.1"
   id="svg5"
   xml:space="preserve"
   xmlns:inkscape="http://www.inkscape.org/namespaces/inkscape"
   xmlns:sodipodi="http://sodipodi.sourceforge.net/DTD/sodipodi-0.dtd"
   xmlns="http://www.w3.org/2000/svg"
   xmlns:svg="http://www.w3.org/2000/svg"><sodipodi:namedview
     id="namedview7"
     pagecolor="#ffffff"
     bordercolor="#000000"
     borderopacity="0.25"
     inkscape:showpageshadow="2"
     inkscape:pageopacity="0.0"
     inkscape:pagecheckerboard="0"
     inkscape:deskcolor="#d1d1d1"
     inkscape:document-units="mm"
     showgrid="false"
     inkscape:zoom="1.3808221"
     inkscape:cx="380.20828"
     inkscape:cy="707.1874"
     inkscape:window-width="1920"
     inkscape:window-height="1003"
     inkscape:window-x="0"
     inkscape:window-y="0"
     inkscape:window-maximized="1"
     inkscape:current-layer="layer1" /><defs
     id="defs2" /><g
     inkscape:label="Layer 1"
     inkscape:groupmode="layer"
     id="layer1"
     transform="translate(-24.123593,-96.808042)"><path
       id="rect4308"
       style="fill:#ffffff;stroke-width:0.265307"
       d="M 24.123592,96.808044 V 107.80789 H 50.11322 l 30.865816,63.6049 0.08527,-0.0651 H 147.8132 v -0.003 l 0.0119,0.006 26.5808,-52.03042 h -12.35222 l -20.95944,41.02696 H 87.835982 l -30.827575,-63.52636 -0.01344,0.0067 v -0.02015 z m 62.025155,85.716736 a 8.6711512,8.6711512 0 0 0 -8.671306,8.6713 8.6711512,8.6711512 0 0 0 8.671306,8.67131 8.6711512,8.6711512 0 0 0 8.671305,-8.67131 8.6711512,8.6711512 0 0 0 -8.671305,-8.6713 z m 52.992113,0 a 8.6711512,8.6711512 0 0 0 -8.67079,8.6713 8.6711512,8.6711512 0 0 0 8.67079,8.67131 8.6711512,8.6711512 0 0 0 8.67131,-8.67131 8.6711512,8.6711512 0 0 0 -8.67131,-8.6713 z" /></g></svg>
